<svg xmlns="http://www.w3.org/2000/svg" fill="none" viewBox="0 0 24 24"><path fill="#000" d="M8.584 4.09C10.104 1.363 10.864 0 12 0s1.896 1.363 3.416 4.09l.393.705c.432.775.648 1.163.985 1.418.337.256.756.35 1.595.54l.764.173c2.951.668 4.427 1.002 4.778 2.131.351 1.13-.655 2.306-2.667 4.659l-.52.609c-.573.668-.858 1.003-.987 1.416s-.085.86.001 1.752l.079.812c.304 3.14.456 4.71-.463 5.407-.92.698-2.301.062-5.065-1.21l-.715-.33c-.785-.361-1.178-.542-1.594-.542s-.809.18-1.594.542l-.715.33c-2.764 1.272-4.146 1.908-5.065 1.21s-.767-2.267-.463-5.407l.079-.812c.086-.892.13-1.338.001-1.752s-.414-.748-.986-1.416l-.52-.61C.723 11.364-.284 10.187.068 9.058s1.827-1.463 4.778-2.13l.764-.173c.839-.19 1.258-.285 1.595-.54s.553-.644.985-1.419Z"/></svg>